<svg id="Laag_1" data-name="Laag 1" xmlns="http://www.w3.org/2000/svg" viewBox="0 0 923.53 299.12"><defs><style>.cls-1{fill:#1d1d1b;}.cls-2{fill:#e85b3f;}.cls-3{fill:none;}</style></defs><title>DeX-logo-orange</title><path class="cls-1" d="M93.38,391.25H234.73q49.1,0,87.11,18.36t58.93,52.09q20.91,33.75,20.92,79t-20.92,79q-20.92,33.74-58.93,52.1t-87.11,18.36H93.38ZM231.31,622.69q38.43,0,61.71-21.78t23.27-60.21q0-38.43-23.27-60.21t-61.71-21.78H177.93v164Z" transform="translate(-78 -391.04)"/><path class="cls-1" d="M677.55,590.93H509.3q5.13,17.94,19.86,27.55t36.93,9.61q16.67,0,28.83-4.7T619.47,608l42.7,44.41Q628.43,690,563.53,690q-40.57,0-71.31-15.37t-47.61-42.7Q427.74,604.6,427.74,570q0-34.15,16.44-61.28a114.79,114.79,0,0,1,45.48-42.49q29-15.37,65.33-15.37,34.59,0,62.77,14.31a108.9,108.9,0,0,1,44.63,41.42q16.43,27.12,16.44,64.26Q678.83,571.73,677.55,590.93ZM524,519.19q-12.6,10.68-16,29h94.8q-3.44-18.35-16-29t-31.38-10.67Q536.63,508.52,524,519.19Z" transform="translate(-78 -391.04)"/><polygon class="cls-2" points="792.91 132.35 878.09 0 796.36 0 751.32 73.74 792.91 132.35"/><polygon class="cls-1" points="784.9 144.36 772.9 127.45 690.19 0 605.03 0 698.21 147.77 600.83 298.97 687.14 298.97 741.75 206.29 797.13 298.97 884.2 298.97 784.9 144.36"/><line class="cls-3" y1="0.21" x2="923.53" y2="0.21"/></svg>